<svg xmlns="http://www.w3.org/2000/svg" width="39" height="27" viewBox="0 0 39 27" fill="none">
  <path d="M37.2519 27H1.75577C0.78466 27 0 26.2305 0 25.2782V1.72178C0 0.76947 0.78466 0 1.75577 0H37.2442C38.2153 0 38.9999 0.76947 38.9999 1.72178V25.2782C39.0077 26.2305 38.2231 27 37.2519 27Z" fill="#CBD6E2"/>
  <path opacity="0.5" d="M1.79046 21.4186L1.79063 21.4185L18.2571 10.9538C18.2571 10.9538 18.2573 10.9537 18.2574 10.9536C19.0182 10.4711 19.9899 10.4712 20.7506 10.9538L37.2156 21.4176C37.2159 21.4177 37.2161 21.4179 37.2163 21.418C38.0162 21.9305 38.4999 22.8019 38.4999 23.7308V24.0659C38.4999 24.7326 37.9485 25.2872 37.2444 25.2872H1.76323C1.05916 25.2872 0.507812 24.7326 0.507812 24.0659V23.7308C0.507812 22.7997 0.9855 21.9297 1.79046 21.4186Z" fill="#516F90" stroke="#516F90"/>
  <path d="M37.4852 22.2094L21.0185 11.7445C20.0942 11.1581 18.9135 11.1581 17.9892 11.7445L1.52244 22.2094C0.574828 22.8111 0.0078125 23.8393 0.0078125 24.9437V25.2788C0.0078125 26.2308 0.792314 27.0001 1.76323 27.0001H37.2444C38.2154 27.0001 38.9999 26.2308 38.9999 25.2788V24.9437C38.9999 23.8393 38.4251 22.8111 37.4852 22.2094Z" fill="#CBD6E2"/>
  <path opacity="0.3" d="M0 3.42051C0 4.52489 0.567016 5.55309 1.51463 6.15478L17.9814 15.363C18.9057 15.9494 20.0863 15.9494 21.0107 15.363L37.4774 6.15478C38.425 5.55309 38.992 4.52489 38.992 3.42051V1.69922H0V3.42051Z" fill="#F5F8FA"/>
  <path d="M1.78281 4.03363L1.78265 4.03352C0.977687 3.52241 0.5 2.65246 0.5 1.72135C0.5 1.05111 1.0541 0.494569 1.7515 0.50004L1.7515 0.500056H1.75542H37.2366C37.9407 0.500056 38.492 1.05466 38.492 1.72135C38.492 2.65246 38.0144 3.52241 37.2094 4.03352L37.2092 4.03363L20.7428 14.4983C20.7427 14.4983 20.7427 14.4984 20.7426 14.4984C19.9819 14.981 19.0101 14.981 18.2494 14.4984C18.2494 14.4984 18.2493 14.4983 18.2493 14.4983L1.78281 4.03363Z" fill="#F5F8FA" stroke="#516F90"/>
  <path d="M1.75542 0.159944H37.2366C38.1842 0.159944 38.961 0.898731 38.992 1.82031C38.992 1.78984 38.992 1.75176 38.992 1.7213C38.992 0.769252 38.2075 0 37.2366 0H1.75542C0.784501 0 0 0.769252 0 1.7213C0 1.75176 0 1.78984 0 1.82031C0.0388367 0.898731 0.807803 0.159944 1.75542 0.159944Z" fill="#516F90"/>
</svg>