<svg xmlns="http://www.w3.org/2000/svg" width="16" height="16" viewBox="0 0 16 16" fill="none">
  <path d="M5.33203 1.33398V3.33398" stroke="#1E2224" stroke-miterlimit="10" stroke-linecap="round" stroke-linejoin="round"/>
  <path d="M10.668 1.33398V3.33398" stroke="#1E2224" stroke-miterlimit="10" stroke-linecap="round" stroke-linejoin="round"/>
  <path d="M2.33203 6.06055H13.6654" stroke="#1E2224" stroke-miterlimit="10" stroke-linecap="round" stroke-linejoin="round"/>
  <path d="M12.806 10.5129L10.446 12.8729C10.3527 12.9662 10.266 13.1395 10.246 13.2662L10.1194 14.1662C10.0727 14.4929 10.2994 14.7195 10.626 14.6729L11.526 14.5462C11.6527 14.5262 11.8327 14.4395 11.9194 14.3462L14.2794 11.9862C14.686 11.5795 14.8794 11.1062 14.2794 10.5062C13.686 9.91288 13.2127 10.1062 12.806 10.5129Z" stroke="#1E2224" stroke-miterlimit="10" stroke-linecap="round" stroke-linejoin="round"/>
  <path d="M12.4648 10.8535C12.6648 11.5735 13.2248 12.1335 13.9448 12.3335" stroke="#1E2224" stroke-miterlimit="10" stroke-linecap="round" stroke-linejoin="round"/>
  <path d="M8 14.6673H5.33333C3 14.6673 2 13.334 2 11.334V5.66732C2 3.66732 3 2.33398 5.33333 2.33398H10.6667C13 2.33398 14 3.66732 14 5.66732V8.00065" stroke="#1E2224" stroke-miterlimit="10" stroke-linecap="round" stroke-linejoin="round"/>
  <path d="M7.99764 9.13411H8.00363" stroke="#1E2224" stroke-linecap="round" stroke-linejoin="round"/>
  <path d="M5.52889 9.13411H5.53488" stroke="#1E2224" stroke-linecap="round" stroke-linejoin="round"/>
  <path d="M5.52889 11.1341H5.53488" stroke="#1E2224" stroke-linecap="round" stroke-linejoin="round"/>
</svg>