<svg xmlns="http://www.w3.org/2000/svg" width="14" height="14" viewBox="0 0 14 14" fill="none">
  <path d="M2.91667 5.83398C2.275 5.83398 1.75 6.35898 1.75 7.00065C1.75 7.64232 2.275 8.16732 2.91667 8.16732C3.55833 8.16732 4.08333 7.64232 4.08333 7.00065C4.08333 6.35898 3.55833 5.83398 2.91667 5.83398Z" fill="#1E2224"/>
  <path d="M11.0834 5.83398C10.4417 5.83398 9.91675 6.35898 9.91675 7.00065C9.91675 7.64232 10.4417 8.16732 11.0834 8.16732C11.7251 8.16732 12.2501 7.64232 12.2501 7.00065C12.2501 6.35898 11.7251 5.83398 11.0834 5.83398Z" fill="#1E2224"/>
  <path d="M6.99992 5.83398C6.35825 5.83398 5.83325 6.35898 5.83325 7.00065C5.83325 7.64232 6.35825 8.16732 6.99992 8.16732C7.64159 8.16732 8.16659 7.64232 8.16659 7.00065C8.16659 6.35898 7.64159 5.83398 6.99992 5.83398Z" fill="#1E2224"/>
</svg>