<svg xmlns="http://www.w3.org/2000/svg" width="192" height="32" viewBox="0 0 192 32" fill="none">
<circle cx="176" cy="16" r="16" fill="#F8951E"/>
  <path d="M182.608 12.3183C183.14 13.6434 183.14 18.5827 182.549 19.8476C182.372 20.209 182.135 20.45 181.78 20.6307C180.893 21.1126 171.611 21.1126 170.429 20.6909C169.896 20.5102 169.542 20.1488 169.364 19.6067C168.891 18.2815 168.773 12.8604 169.66 11.7762C169.956 11.4147 170.369 11.1738 170.842 11.1738C173.267 10.9329 180.716 10.9329 181.603 11.234C182.076 11.475 182.431 11.8364 182.608 12.3183ZM178.647 15.8721C177.169 15.0891 175.75 14.306 174.272 13.5832V18.2213C175.75 17.4382 177.169 16.6552 178.647 15.8721Z" fill="white"/>
</svg>