<svg xmlns="http://www.w3.org/2000/svg" width="192" height="32" viewBox="0 0 192 32" fill="none">
  <circle cx="16" cy="16" r="16" fill="#F8951E"/>
  <path d="M20 7.15319V10.0638H19.7787C19.2623 10.0638 18.6721 10.0638 18.1557 10.0638C17.418 10.0638 16.9016 10.3702 16.8279 11.366C16.8279 12.0553 16.8279 13.6638 16.8279 13.6638C16.8279 13.6638 18.5246 13.6638 19.3361 13.6638C19.5574 13.6638 19.7049 13.6638 19.9262 13.6638C19.7787 14.7362 19.6311 15.8085 19.5574 16.8809H16.9016V25H13.6557V16.8043H11V13.5872H13.6557V13.3574C13.6557 12.7447 13.6557 12.0553 13.6557 11.4426C13.6557 11.0596 13.6557 10.6 13.7295 10.217C13.877 9.22128 14.3197 8.37872 15.1311 7.76596C15.7951 7.22979 16.6066 7.0766 17.4918 7C18.0082 7 18.5984 7 19.1148 7C19.4098 7.0766 19.7049 7.0766 20 7.15319Z" fill="white"/>
</svg>