<svg xmlns="http://www.w3.org/2000/svg" width="192" height="32" viewBox="0 0 192 32" fill="none">
  <circle cx="96" cy="16" r="16" fill="#F8951E"/>
  <path d="M102.719 13.3162L102.643 13.3942C102.643 13.8624 102.643 14.3305 102.568 14.7987C102.417 15.8131 102.191 16.7494 101.739 17.6857C101.286 18.6221 100.759 19.4804 100.08 20.2607C98.8744 21.5091 97.4422 22.3674 95.7839 22.7576C95.1809 22.9136 94.6533 22.9136 94.0503 22.9916C92.2412 23.0697 90.5829 22.6015 89.0754 21.5871C89.0754 21.5871 89.0754 21.5871 89 21.5091C90.0553 21.6652 91.1106 21.5091 92.0905 21.0409C92.6181 20.8069 93.1457 20.4947 93.598 20.1046C91.9397 20.0266 90.9598 18.8562 90.6583 17.8418C91.1106 17.9198 91.5628 17.9198 92.0151 17.7638C92.0151 17.7638 92.0151 17.7638 92.0905 17.7638C91.1859 17.5297 90.5075 17.0615 90.0553 16.2812C89.7538 15.735 89.603 15.1889 89.603 14.5646C90.0553 14.7987 90.5075 14.9548 90.9598 14.9548C90.2814 14.4866 89.8291 13.7844 89.6784 13.0041C89.5276 12.1458 89.603 11.3655 89.9799 10.6632C91.6382 12.692 93.8241 13.8624 96.3869 14.0184C96.3869 13.8624 96.3869 13.7844 96.3116 13.6283C96.2362 12.848 96.3869 12.1458 96.7638 11.5215C97.2915 10.7413 97.9698 10.1951 98.8744 10.039C99.9296 9.88296 100.834 10.1951 101.588 10.9753C101.663 11.0534 101.663 11.0534 101.739 11.0534C102.342 10.8973 103.02 10.6632 103.548 10.3511C103.548 10.3511 103.548 10.3511 103.623 10.3511C103.397 11.1314 102.945 11.6776 102.266 12.1458C102.869 12.0677 103.472 11.9117 104 11.6776C103.849 11.8337 103.774 11.9897 103.623 12.1458C103.548 12.6139 103.171 12.926 102.719 13.3162Z" fill="white"/>
</svg>