<svg xmlns="http://www.w3.org/2000/svg" width="192" height="32" viewBox="0 0 192 32" fill="none">
<circle cx="56" cy="16" r="16" fill="#F8951E"/>
  <path d="M58.7036 15.9634C57.1481 15.9634 56.9259 17.1362 56.9259 18.3822V23H53.9629V13.6178H56.7777V14.8639C57.1481 14.1309 58.111 13.3246 59.5184 13.3246C62.4814 13.3246 62.9999 15.2304 62.9999 17.7226V22.8534H60.111V18.3089C60.1851 17.3561 60.1851 15.9634 58.7036 15.9634Z" fill="white"/>
  <path d="M52.1851 13.6178H49.2222V22.9267H52.1851V13.6178Z" fill="white"/>
  <path d="M50.7037 9C51.6667 9 52.4074 9.73298 52.4074 10.6859C52.4074 11.6387 51.6667 12.3717 50.7037 12.3717C49.7407 12.3717 49 11.6387 49 10.6859C49 9.73298 49.7407 9 50.7037 9Z" fill="white"/>
</svg>