<svg xmlns="http://www.w3.org/2000/svg" width="192" height="32" viewBox="0 0 192 32" fill="none">
<circle cx="136" cy="16" r="16" fill="#F8951E"/>
  <path d="M142.862 12.5341C142.798 11.6304 142.412 10.7912 141.705 10.1457C140.997 9.43571 140.096 9.17751 139.131 9.11296C137.523 8.98386 133.664 8.91931 132.249 9.17751C130.705 9.43571 129.675 10.3394 129.225 11.8886C128.904 13.0505 128.968 18.6017 129.161 19.7636C129.418 21.3773 130.383 22.4101 131.991 22.7974C133.085 23.0556 138.488 23.0556 139.71 22.862C141.319 22.6038 142.348 21.6355 142.798 20.0863C143.12 18.8599 142.991 13.6314 142.862 12.5341ZM141.576 19.5054C141.383 20.7318 140.611 21.5064 139.324 21.6355C138.231 21.7646 133.149 21.8292 132.12 21.5064C131.155 21.2482 130.576 20.6027 130.447 19.5699C130.319 18.6017 130.254 13.7605 130.447 12.4695C130.64 11.2431 131.412 10.4685 132.634 10.3394C133.857 10.2103 138.295 10.2103 139.517 10.3394C140.74 10.533 141.512 11.3076 141.64 12.5986C141.769 13.8251 141.769 18.279 141.576 19.5054ZM135.979 12.405C133.985 12.405 132.377 14.0187 132.377 16.0197C132.377 18.0208 133.985 19.6345 135.979 19.6345C137.974 19.6345 139.582 18.0208 139.582 16.0197C139.582 14.0187 137.974 12.405 135.979 12.405ZM135.979 18.3435C134.693 18.3435 133.664 17.3107 133.664 16.0197C133.664 14.7288 134.693 13.696 135.979 13.696C137.266 13.696 138.295 14.7288 138.295 16.0197C138.295 17.3107 137.266 18.3435 135.979 18.3435ZM140.547 12.2759C140.547 12.7277 140.161 13.115 139.71 13.115C139.26 13.115 138.874 12.7277 138.874 12.2759C138.874 11.824 139.26 11.4367 139.71 11.4367C140.225 11.4367 140.547 11.824 140.547 12.2759Z" fill="white"/>
</svg>