<svg width="14" height="14" viewBox="0 0 14 14" fill="none" xmlns="http://www.w3.org/2000/svg">
<g id="vuesax/bold/calendar">
<g id="calendar">
<path id="Vector" d="M9.77162 2.07602V1.16602C9.77162 0.926849 9.57328 0.728516 9.33412 0.728516C9.09495 0.728516 8.89662 0.926849 8.89662 1.16602V2.04102H5.10495V1.16602C5.10495 0.926849 4.90662 0.728516 4.66745 0.728516C4.42828 0.728516 4.22995 0.926849 4.22995 1.16602V2.07602C2.65495 2.22185 1.89078 3.16102 1.77412 4.55518C1.76245 4.72435 1.90245 4.86435 2.06578 4.86435H11.9358C12.1049 4.86435 12.245 4.71852 12.2275 4.55518C12.1108 3.16102 11.3466 2.22185 9.77162 2.07602Z" fill="#33475B"/>
<path id="Vector_2" d="M11.6667 5.74023H2.33333C2.0125 5.74023 1.75 6.00273 1.75 6.32357V9.9169C1.75 11.6669 2.625 12.8336 4.66667 12.8336H9.33333C11.375 12.8336 12.25 11.6669 12.25 9.9169V6.32357C12.25 6.00273 11.9875 5.74023 11.6667 5.74023ZM5.3725 10.6227C5.34333 10.6461 5.31417 10.6752 5.285 10.6927C5.25 10.7161 5.215 10.7336 5.18 10.7452C5.145 10.7627 5.11 10.7744 5.075 10.7802C5.03417 10.7861 4.99917 10.7919 4.95833 10.7919C4.8825 10.7919 4.80667 10.7744 4.73667 10.7452C4.66083 10.7161 4.6025 10.6752 4.54417 10.6227C4.43917 10.5119 4.375 10.3602 4.375 10.2086C4.375 10.0569 4.43917 9.90523 4.54417 9.7944C4.6025 9.7419 4.66083 9.70107 4.73667 9.6719C4.84167 9.62523 4.95833 9.61357 5.075 9.6369C5.11 9.64273 5.145 9.6544 5.18 9.6719C5.215 9.68357 5.25 9.70107 5.285 9.7244C5.31417 9.74773 5.34333 9.77107 5.3725 9.7944C5.4775 9.90523 5.54167 10.0569 5.54167 10.2086C5.54167 10.3602 5.4775 10.5119 5.3725 10.6227ZM5.3725 8.58107C5.26167 8.68607 5.11 8.75023 4.95833 8.75023C4.80667 8.75023 4.655 8.68607 4.54417 8.58107C4.43917 8.47023 4.375 8.31857 4.375 8.1669C4.375 8.01523 4.43917 7.86357 4.54417 7.75273C4.7075 7.5894 4.96417 7.5369 5.18 7.63023C5.25583 7.6594 5.32 7.70023 5.3725 7.75273C5.4775 7.86357 5.54167 8.01523 5.54167 8.1669C5.54167 8.31857 5.4775 8.47023 5.3725 8.58107ZM7.41417 10.6227C7.30333 10.7277 7.15167 10.7919 7 10.7919C6.84833 10.7919 6.69667 10.7277 6.58583 10.6227C6.48083 10.5119 6.41667 10.3602 6.41667 10.2086C6.41667 10.0569 6.48083 9.90523 6.58583 9.7944C6.80167 9.57857 7.19833 9.57857 7.41417 9.7944C7.51917 9.90523 7.58333 10.0569 7.58333 10.2086C7.58333 10.3602 7.51917 10.5119 7.41417 10.6227ZM7.41417 8.58107C7.385 8.6044 7.35583 8.62773 7.32667 8.65107C7.29167 8.6744 7.25667 8.6919 7.22167 8.70357C7.18667 8.72107 7.15167 8.73273 7.11667 8.73857C7.07583 8.7444 7.04083 8.75023 7 8.75023C6.84833 8.75023 6.69667 8.68607 6.58583 8.58107C6.48083 8.47023 6.41667 8.31857 6.41667 8.1669C6.41667 8.01523 6.48083 7.86357 6.58583 7.75273C6.63833 7.70023 6.7025 7.6594 6.77833 7.63023C6.99417 7.5369 7.25083 7.5894 7.41417 7.75273C7.51917 7.86357 7.58333 8.01523 7.58333 8.1669C7.58333 8.31857 7.51917 8.47023 7.41417 8.58107ZM9.45583 10.6227C9.345 10.7277 9.19333 10.7919 9.04167 10.7919C8.89 10.7919 8.73833 10.7277 8.6275 10.6227C8.5225 10.5119 8.45833 10.3602 8.45833 10.2086C8.45833 10.0569 8.5225 9.90523 8.6275 9.7944C8.84333 9.57857 9.24 9.57857 9.45583 9.7944C9.56083 9.90523 9.625 10.0569 9.625 10.2086C9.625 10.3602 9.56083 10.5119 9.45583 10.6227ZM9.45583 8.58107C9.42667 8.6044 9.3975 8.62773 9.36833 8.65107C9.33333 8.6744 9.29833 8.6919 9.26333 8.70357C9.22833 8.72107 9.19333 8.73273 9.15833 8.73857C9.1175 8.7444 9.07667 8.75023 9.04167 8.75023C8.89 8.75023 8.73833 8.68607 8.6275 8.58107C8.5225 8.47023 8.45833 8.31857 8.45833 8.1669C8.45833 8.01523 8.5225 7.86357 8.6275 7.75273C8.68583 7.70023 8.74417 7.6594 8.82 7.63023C8.925 7.58357 9.04167 7.5719 9.15833 7.59523C9.19333 7.60107 9.22833 7.61273 9.26333 7.63023C9.29833 7.6419 9.33333 7.6594 9.36833 7.68273C9.3975 7.70607 9.42667 7.7294 9.45583 7.75273C9.56083 7.86357 9.625 8.01523 9.625 8.1669C9.625 8.31857 9.56083 8.47023 9.45583 8.58107Z" fill="#33475B"/>
</g>
</g>
</svg>
